<?xml version="1.0" encoding="UTF-8"?>
<svg width="64" height="64" viewBox="0 0 64 64" version="1.1" xmlns="http://www.w3.org/2000/svg">
  <defs>
    <linearGradient id="body" x1="12" y1="17" x2="12" y2="50" gradientUnits="userSpaceOnUse">
      <stop offset="0" stop-color="#bec8cc"/>
      <stop offset="1" stop-color="#87969e"/>
    </linearGradient>
    <linearGradient id="lens" x1="22" y1="24" x2="42" y2="44" gradientUnits="userSpaceOnUse">
      <stop offset="0" stop-color="#123752"/>
      <stop offset="1" stop-color="#061b2b"/>
    </linearGradient>
  </defs>
  <rect x="10" y="19" width="44" height="31" rx="4" ry="4" fill="url(#body)"/>
  <path d="M14 45h36c2.2 0 4-1.8 4-4v5c0 2.2-1.8 4-4 4H14c-2.2 0-4-1.8-4-4v-5c0 2.2 1.8 4 4 4z" fill="#292c2f" opacity=".28"/>
  <path d="M18 19l4-6h16l4 6z" fill="#a6b2b8"/>
  <rect x="45" y="24" width="5" height="3" rx="1.5" fill="#da4453"/>
  <rect x="45" y="30" width="5" height="3" rx="1.5" fill="#31363b"/>
  <rect x="45" y="36" width="5" height="3" rx="1.5" fill="#31363b"/>
  <circle cx="32" cy="34" r="13" fill="#eaf6fc"/>
  <circle cx="32" cy="34" r="10" fill="url(#lens)"/>
  <circle cx="32" cy="34" r="5" fill="#1d9ef6"/>
  <circle cx="36" cy="30" r="2" fill="#eaf6fc" opacity=".9"/>
  <path d="M17 54h30" fill="none" stroke="#31363b" stroke-width="2" stroke-linecap="round"/>
  <circle cx="20" cy="54" r="2.5" fill="#1d9ef6"/>
  <circle cx="28" cy="54" r="2.5" fill="#1d9ef6"/>
  <circle cx="36" cy="54" r="2.5" fill="#1d9ef6"/>
  <circle cx="44" cy="54" r="2.5" fill="#1d9ef6"/>
</svg>
